<?xml version="1.0" standalone="no"?>
<!DOCTYPE svg PUBLIC "-//W3C//DTD SVG 20010904//EN"
 "http://www.w3.org/TR/2001/REC-SVG-20010904/DTD/svg10.dtd">
<svg version="1.0" xmlns="http://www.w3.org/2000/svg"
 width="1536.000000pt" height="1024.000000pt" viewBox="0 0 1536.000000 1024.000000"
 preserveAspectRatio="xMidYMid meet">

<g transform="translate(0.000000,1024.000000) scale(0.100000,-0.100000)"
fill="#000000" stroke="none">
<path d="M0 5120 l0 -5120 7680 0 7680 0 0 5120 0 5120 -7680 0 -7680 0 0
-5120z m7909 2289 c-16 -4 -79 -7 -139 -8 -60 -1 -119 -4 -131 -6 -11 -2 -139
-7 -283 -10 -224 -5 -258 -4 -238 8 14 8 58 14 109 16 48 1 89 4 93 6 3 2 139
7 301 11 161 3 296 8 298 10 3 3 8 -1 12 -8 6 -9 -1 -15 -22 -19z m101 20 c0
-5 7 -9 15 -9 8 0 15 5 15 10 0 6 5 10 10 10 6 0 10 -7 10 -15 0 -12 -13 -15
-55 -15 -39 0 -53 3 -50 13 6 14 55 20 55 6z m124 -1 c-4 -7 -3 -8 4 -4 7 4
20 2 29 -3 14 -8 5 -10 -37 -10 -30 1 -47 3 -37 6 9 2 15 9 12 14 -4 5 3 9 15
9 13 0 19 -4 14 -12z m133 -12 c2 -2 -14 -4 -37 -4 -22 0 -38 3 -35 8 5 8 63
5 72 -4z m-2637 -131 c11 -13 10 -14 -4 -9 -9 3 -16 10 -16 15 0 13 6 11 20
-6z m2243 -46 c15 -16 15 -19 2 -19 -8 0 -15 5 -15 10 0 6 -5 10 -11 10 -5 0
-7 -5 -4 -10 5 -7 -28 -10 -99 -8 -58 2 -106 0 -106 -4 0 -5 19 -8 43 -9 23 0
60 -2 82 -4 22 -3 92 -9 155 -15 63 -6 181 -11 263 -12 81 -1 147 -5 147 -9 0
-3 -60 -7 -132 -7 -73 -1 -142 -2 -153 -3 -11 0 23 -9 75 -19 52 -11 120 -27
150 -36 84 -24 239 -87 235 -94 -2 -3 23 -6 55 -6 45 1 56 -2 48 -11 -10 -12
-4 -17 15 -14 4 0 7 -4 7 -9 0 -6 5 -10 11 -10 5 0 7 5 4 10 -4 6 5 5 20 -2
18 -8 22 -14 13 -20 -9 -5 -5 -8 12 -8 14 0 43 -7 65 -15 l40 -14 -55 -3 c-30
-1 -74 -3 -97 -4 -51 -1 -57 -16 -11 -25 36 -7 -178 -13 -335 -9 -54 1 -132 8
-175 16 -71 13 -73 13 -19 10 31 -3 57 -1 57 3 0 6 -148 43 -220 55 -313 50
-684 25 -980 -65 -101 -31 -113 -33 -315 -37 -209 -4 -270 5 -114 17 125 9
114 28 -18 31 -59 1 -121 3 -138 5 -16 1 -46 3 -65 4 l-35 2 45 21 c25 11 66
31 91 44 53 27 63 29 54 12 -4 -7 0 -5 9 6 9 11 22 16 31 12 9 -3 13 -2 10 4
-4 6 9 10 32 10 81 0 368 13 372 16 2 2 -70 4 -160 4 -158 1 -191 10 -84 24
92 12 142 23 115 26 -37 3 103 46 240 75 l115 23 -105 3 c-77 1 -47 4 115 10
238 9 379 26 233 28 -43 1 -78 5 -78 11 0 25 44 29 290 24 235 -5 256 -7 273
-25z m-1783 -154 l25 -30 -29 25 c-15 14 -55 57 -89 95 l-60 70 64 -65 c35
-36 75 -79 89 -95z m455 105 c3 -5 16 -11 28 -11 17 -1 18 -2 5 -6 -10 -2 -28
3 -40 11 -12 9 -17 16 -11 16 7 0 15 -4 18 -10z m-1188 -21 c-14 -8 -22 -8
-30 0 -8 8 -3 11 19 11 25 -1 27 -2 11 -11z m48 1 c3 -5 -1 -10 -9 -10 -9 0
-16 5 -16 10 0 6 4 10 9 10 6 0 13 -4 16 -10z m70 0 c-26 -11 -55 -12 -55 -2
0 4 17 8 38 9 28 0 32 -1 17 -7z m113 -30 l25 -35 -32 33 c-26 27 -37 33 -59
28 -20 -5 -23 -4 -12 4 25 17 51 7 78 -30z m247 -113 l140 -3 -145 -1 -145 -2
-19 27 -19 27 24 -22 c23 -21 36 -23 164 -26z m2815 -27 c0 -5 -5 -10 -11 -10
-5 0 -7 5 -4 10 3 6 8 10 11 10 2 0 4 -4 4 -10z m194 -150 c76 0 65 -12 -15
-16 -84 -3 -87 -14 -3 -14 94 -1 143 -9 184 -31 l35 -18 -80 -2 c-270 -6 -525
4 -525 19 0 4 37 6 83 6 76 -2 74 -1 -28 7 -60 5 -155 17 -210 27 l-100 17
245 5 c135 3 270 4 300 3 30 -1 82 -2 114 -3z m-2044 -19 c0 -12 -18 -18 -86
-27 -32 -4 -63 -13 -69 -20 -11 -15 -188 -33 -340 -35 -274 -3 -645 3 -645 12
0 11 -18 10 210 15 354 6 683 20 580 24 -52 2 -167 3 -255 3 -117 -1 -155 1
-141 9 35 19 746 37 746 19z m2173 -8 c-7 -2 -19 -2 -25 0 -7 3 -2 5 12 5 14
0 19 -2 13 -5z m554 1 c-3 -3 -12 -4 -19 -1 -8 3 -5 6 6 6 11 1 17 -2 13 -5z
m120 0 c-3 -3 -12 -4 -19 -1 -8 3 -5 6 6 6 11 1 17 -2 13 -5z m-3999 -56 c-4
-10 -116 -14 -534 -15 -291 -2 -540 0 -553 3 -73 16 51 22 546 23 437 1 544
-1 541 -11z m1397 -23 c-16 -14 -40 -33 -52 -41 -13 -9 -23 -23 -23 -32 0 -13
2 -13 18 1 10 10 22 14 27 10 4 -5 5 -3 1 4 -3 6 -2 14 3 17 5 4 13 -3 16 -14
5 -17 9 -19 21 -9 12 10 12 14 -3 25 -14 11 -14 14 -3 12 8 -2 22 -11 31 -20
9 -10 19 -15 23 -11 12 12 45 13 52 1 5 -8 2 -9 -9 -5 -10 3 -17 2 -17 -4 0
-6 -4 -8 -9 -5 -5 3 -8 -5 -7 -18 0 -13 4 -22 8 -20 3 2 8 -1 10 -7 2 -6 15
-9 28 -7 l25 4 -27 12 c-16 6 -28 17 -28 23 0 6 16 -1 35 -15 19 -15 35 -24
35 -20 0 3 8 0 17 -7 15 -12 16 -12 10 4 -4 11 -3 16 3 12 5 -3 20 -1 32 6 22
12 22 11 6 -8 -22 -24 -24 -40 -2 -19 8 9 21 16 27 15 9 0 8 -2 0 -6 -7 -2
-13 -9 -13 -15 0 -6 6 -8 13 -5 7 3 21 -1 32 -9 14 -10 15 -14 4 -14 -12 0
-12 -2 1 -10 8 -5 11 -12 8 -16 -4 -3 -1 -19 7 -34 17 -32 13 -83 -6 -88 -11
-3 -10 -1 1 7 9 7 10 11 3 11 -19 0 -27 -21 -12 -32 10 -7 6 -8 -13 -4 -25 6
-28 4 -29 -21 -1 -17 -3 -21 -6 -10 -5 21 -23 23 -23 2 0 -8 -4 -15 -10 -15
-5 0 -10 6 -10 14 0 8 -9 13 -24 12 -13 0 -22 -4 -20 -8 2 -4 0 -9 -6 -13 -5
-3 -10 1 -10 10 0 21 -21 43 -36 38 -14 -5 -27 25 -17 39 3 7 1 8 -5 4 -7 -4
-12 -1 -12 8 0 9 -5 16 -10 16 -7 0 -7 6 -1 18 8 15 5 18 -22 19 -18 1 -24 -1
-14 -4 9 -2 17 -7 17 -10 0 -3 -8 -12 -17 -19 -10 -7 -13 -14 -7 -14 7 0 15
-7 18 -16 6 -15 4 -15 -19 0 -23 15 -25 15 -26 -1 -1 -10 -1 -22 0 -27 1 -5
-4 -13 -11 -18 -11 -6 -11 -10 1 -17 8 -5 9 -11 3 -15 -6 -4 -15 2 -21 11 -9
16 -10 16 -11 1 0 -9 5 -20 10 -23 8 -5 7 -12 -2 -22 -15 -19 -17 -45 -3 -55
6 -5 6 -8 -1 -8 -7 0 -10 -14 -8 -35 1 -19 -1 -33 -6 -30 -5 3 -11 1 -15 -5
-3 -5 1 -10 11 -10 13 0 15 -6 11 -30 -4 -19 -1 -34 8 -43 8 -8 11 -17 8 -21
-3 -3 2 -8 11 -12 9 -3 16 -11 16 -16 0 -6 -7 -8 -15 -4 -8 3 -15 1 -15 -4 0
-6 5 -10 11 -10 6 0 9 -6 6 -12 -2 -7 3 -19 12 -26 14 -12 14 -13 -2 -8 -12 4
-17 2 -14 -6 2 -7 10 -12 17 -10 17 4 29 -15 25 -44 -1 -13 2 -21 7 -18 14 9
38 -16 31 -32 -3 -8 0 -14 7 -14 6 0 8 -4 5 -10 -3 -5 1 -10 10 -10 10 0 13
-5 9 -12 -5 -8 -2 -9 10 -5 14 6 17 3 12 -9 -4 -12 -2 -15 9 -10 10 3 17 -3
21 -20 4 -16 9 -21 14 -15 3 7 14 9 24 5 14 -5 14 -9 4 -22 -11 -13 -10 -14 2
-10 8 3 24 -2 34 -11 16 -13 18 -13 11 -1 -6 11 -4 11 11 -2 17 -15 58 -34 77
-36 4 -1 14 -7 21 -15 8 -7 32 -13 57 -12 24 1 48 -3 52 -9 6 -8 10 -7 14 2 4
10 8 10 19 1 10 -8 14 -8 14 0 0 7 9 9 26 5 17 -4 25 -3 21 3 -7 11 34 10 52
-1 6 -4 19 2 30 13 12 12 23 16 26 10 10 -15 25 0 18 19 -3 9 -3 14 2 10 4 -4
14 -3 20 2 9 8 14 6 19 -5 3 -8 10 -15 16 -15 6 0 8 5 5 10 -3 6 -1 10 6 10 7
0 4 7 -7 15 -18 13 -18 14 5 8 14 -4 22 -2 18 3 -3 6 3 11 14 11 10 1 19 -2
19 -8 0 -5 -4 -9 -10 -9 -5 0 -10 -6 -10 -12 1 -17 40 31 40 48 0 8 5 14 11
14 6 0 8 -7 5 -16 -3 -8 -2 -12 4 -9 6 3 10 13 10 22 0 10 6 13 16 9 14 -5 15
-4 4 9 -8 10 -9 15 -2 15 6 0 10 6 8 13 -1 6 -1 9 2 4 2 -4 13 -12 24 -18 17
-9 20 -9 15 4 -4 10 2 17 19 21 16 4 24 13 22 24 -2 11 3 16 12 14 10 -1 9 3
-5 14 -16 14 -17 16 -2 11 11 -4 17 -1 17 10 0 9 3 13 6 10 13 -13 46 42 39
64 -5 16 -4 20 6 15 8 -4 5 0 -5 8 -11 9 -17 19 -13 22 4 4 16 -4 28 -17 l21
-24 -7 24 c-6 21 -5 23 11 17 18 -6 18 -6 1 8 -18 14 -18 15 0 25 11 7 14 14
8 18 -17 13 -16 33 1 26 13 -5 15 -2 9 17 -4 14 -3 20 3 16 18 -11 8 29 -12
47 -19 17 -18 17 15 11 33 -7 34 -7 17 13 -22 24 -23 37 -2 29 8 -3 13 -2 9 3
-8 13 25 43 41 37 8 -3 11 0 7 9 -3 10 -13 13 -28 9 -13 -3 -26 -1 -29 5 -7
11 6 15 33 12 8 -2 10 2 5 11 -6 10 -4 10 9 0 14 -12 19 -12 31 1 8 8 12 17 9
21 -12 11 23 15 77 8 47 -6 55 -10 52 -27 -2 -16 -1 -17 7 -6 8 12 11 12 23 0
15 -16 16 -28 5 -46 -5 -8 -4 -13 2 -13 6 0 11 -7 11 -16 0 -8 4 -13 9 -10 5
3 12 -1 15 -10 3 -8 2 -12 -3 -9 -16 9 -25 -16 -10 -26 12 -7 12 -10 1 -18
-11 -6 -10 -10 3 -15 14 -5 15 -9 5 -21 -6 -8 -9 -19 -5 -25 3 -5 0 -10 -7
-11 -9 0 -10 -2 -1 -5 9 -4 9 -13 2 -31 -5 -15 -8 -32 -5 -39 3 -8 1 -16 -5
-19 -5 -4 -8 -12 -7 -18 4 -21 -24 -91 -41 -105 -13 -10 -13 -14 -3 -21 11 -7
11 -9 -2 -14 -9 -4 -16 -13 -16 -21 0 -7 -7 -17 -16 -20 -12 -5 -13 -10 -6
-19 9 -10 4 -17 -18 -31 -17 -9 -30 -24 -30 -33 0 -10 -5 -13 -17 -9 -10 4
-14 4 -11 0 12 -12 -11 -44 -27 -38 -10 4 -15 0 -15 -11 0 -9 5 -13 10 -10 6
3 10 1 10 -4 0 -15 -30 -14 -31 2 0 6 -5 0 -10 -14 -5 -14 -21 -32 -34 -39
-14 -7 -25 -20 -25 -28 0 -8 -6 -12 -14 -9 -8 3 -30 -7 -48 -23 -18 -17 -39
-30 -46 -30 -7 0 -11 -4 -8 -9 5 -8 -19 -21 -99 -53 -16 -6 -34 -13 -40 -13
-5 -1 -17 -5 -25 -8 -28 -12 -175 -38 -217 -40 -24 -1 -43 -5 -43 -10 0 -5 -7
-4 -15 3 -8 7 -24 10 -34 7 -11 -2 -53 1 -93 9 -40 8 -86 16 -103 19 -16 4
-54 13 -84 21 -41 12 -51 18 -40 25 10 7 6 8 -13 3 -18 -4 -28 -2 -28 5 0 7
-6 11 -12 9 -26 -5 -70 13 -65 26 4 10 0 12 -14 9 -13 -4 -19 0 -19 11 0 9 -6
13 -15 10 -9 -4 -18 1 -21 11 -5 13 -9 14 -15 3 -7 -10 -9 -8 -9 6 0 11 -3 16
-7 13 -10 -11 -32 13 -27 28 4 9 0 12 -14 8 -11 -2 -23 0 -26 6 -4 6 -3 11 2
11 11 0 -20 69 -31 70 -5 0 -6 -4 -3 -9 3 -5 0 -11 -7 -14 -20 -7 -39 27 -24
43 10 10 8 12 -7 6 -14 -5 -17 -3 -12 10 5 13 2 15 -15 11 -15 -4 -19 -2 -15
8 3 8 -3 19 -12 25 -14 8 -14 11 -4 18 10 7 8 11 -8 15 -15 4 -21 11 -17 21 4
10 1 16 -8 16 -18 0 -19 14 -4 42 6 11 7 18 2 15 -5 -3 -15 -2 -23 4 -12 7
-11 9 5 10 19 0 18 1 -2 11 -15 7 -23 20 -23 37 0 14 -7 34 -15 44 -7 11 -11
25 -8 33 3 8 1 14 -4 14 -5 0 -9 21 -8 48 0 26 -3 52 -8 59 -4 6 -4 13 0 16 5
3 8 26 7 51 -1 25 2 46 6 46 5 0 7 11 4 24 -2 14 2 31 10 39 11 11 12 17 3 26
-8 8 -8 11 1 11 7 0 11 6 10 13 -2 6 3 11 10 9 10 -2 10 2 1 19 -8 15 -8 19 0
15 10 -6 16 12 12 36 0 4 5 5 13 2 16 -6 40 21 31 36 -3 5 -1 11 4 11 14 2 20
3 54 12 23 6 26 10 17 27 -9 17 -7 18 27 14 21 -2 32 -2 25 2 -9 4 -7 13 8 35
21 28 38 33 53 14 4 -5 4 9 1 32 l-6 42 48 15 c72 22 83 19 49 -9z m1749 4
c83 -1 162 -6 176 -10 31 -9 16 -11 -82 -10 -43 1 -78 -3 -78 -7 0 -4 53 -9
118 -11 64 -1 119 -7 120 -12 2 -5 12 -9 23 -9 10 0 19 -4 19 -9 0 -5 -36 -8
-80 -7 -44 0 -80 -2 -80 -5 0 -9 54 -19 97 -19 20 0 32 -4 28 -10 -4 -6 13
-10 44 -10 27 0 53 -4 56 -10 4 -6 -47 -10 -144 -10 -83 0 -151 3 -151 8 0 4
-21 6 -47 4 -32 -2 -55 2 -68 12 -20 15 -20 15 2 16 12 0 25 5 28 10 4 6 -8
10 -28 10 -37 0 -137 29 -137 39 0 4 32 5 71 3 44 -3 75 0 82 7 8 8 -9 11 -63
12 -97 0 -163 8 -174 20 -6 5 15 7 53 4 35 -2 131 -5 215 -6z m1726 -29 c-11
-20 -20 -20 -668 -18 l-657 3 653 2 c568 3 653 5 658 18 4 8 10 15 15 15 6 0
5 -9 -1 -20z m-4115 0 c88 -1 89 -1 56 -15 -18 -8 -64 -18 -102 -21 -67 -7
-97 -24 -41 -24 l27 0 -33 -20 c-27 -17 -59 -22 -165 -28 -115 -6 -469 -1
-442 7 43 12 96 16 228 19 61 2 67 4 67 23 0 14 -5 19 -15 16 -8 -4 -17 -1
-21 5 -4 6 -29 8 -68 4 -50 -4 -57 -4 -36 6 28 12 37 13 190 23 58 4 106 7
107 8 1 1 37 1 80 0 43 -1 119 -2 168 -3z m2692 -16 c-3 -3 -12 -4 -19 -1 -8
3 -5 6 6 6 11 1 17 -2 13 -5z m-2207 -47 c-13 -12 -19 -15 -12 -6 7 9 9 19 5
22 -3 4 -1 7 6 7 7 0 9 5 5 13 -5 9 -4 9 7 -1 11 -10 9 -16 -11 -35z m-1300
22 c0 -4 -11 -6 -25 -5 -14 0 -25 4 -25 8 0 4 11 7 25 6 14 -1 25 -5 25 -9z
m210 7 c0 -9 -39 -13 -51 -5 -10 6 -4 9 19 9 17 0 32 -2 32 -4z m3404 -16 c6
-6 -2 -6 -22 -1 -17 5 -43 8 -57 7 -14 -2 -25 1 -25 6 0 11 91 1 104 -12z
m-1999 -20 c3 -5 1 -10 -4 -10 -6 0 -11 5 -11 10 0 6 2 10 4 10 3 0 8 -4 11
-10z m982 -27 c4 -10 11 -21 16 -24 10 -7 1 -29 -11 -29 -7 0 -32 48 -32 62 0
15 21 8 27 -9z m-3982 -33 c-3 -5 -1 -10 5 -10 7 0 10 -7 6 -15 -3 -8 -2 -14
2 -13 4 0 18 -4 32 -10 25 -11 25 -11 -5 -8 -20 2 -34 11 -42 26 -11 22 -9 40
3 40 3 0 2 -4 -1 -10z m185 3 c-56 -9 -70 -14 -70 -28 0 -8 -9 -19 -20 -25
-14 -7 -20 -7 -20 0 0 5 5 10 10 10 6 0 16 11 22 25 10 22 17 25 57 24 25 -1
35 -3 21 -6z m88 0 c-10 -2 -28 -2 -40 0 -13 2 -5 4 17 4 22 1 32 -1 23 -4z
m209 1 c-3 -3 -12 -4 -19 -1 -8 3 -5 6 6 6 11 1 17 -2 13 -5z m40 0 c-3 -3
-12 -4 -19 -1 -8 3 -5 6 6 6 11 1 17 -2 13 -5z m91 -1 c-10 -2 -28 -2 -40 0
-13 2 -5 4 17 4 22 1 32 -1 23 -4z m65 0 c-7 -2 -21 -2 -30 0 -10 3 -4 5 12 5
17 0 24 -2 18 -5z m270 0 c-34 -2 -93 -2 -130 0 -37 2 -9 3 62 3 72 0 102 -1
68 -3z m1032 -19 c-11 -8 -33 -18 -48 -21 -15 -3 -25 -8 -22 -11 6 -6 -87 -60
-125 -72 -24 -8 -24 -8 -2 -10 12 -2 27 -4 32 -5 6 -1 22 -3 36 -4 l27 -1 -29
-26 -28 -27 -281 7 c-154 4 -421 7 -592 7 -172 0 -313 3 -313 8 0 13 26 14
365 16 182 1 371 5 420 10 50 5 116 9 148 8 31 -1 57 3 57 8 0 4 -82 10 -182
11 l-183 3 49 29 c46 27 58 29 185 33 75 3 138 7 140 9 2 2 -48 4 -113 4 -103
0 -116 2 -103 14 17 18 64 21 362 24 200 2 218 0 200 -14z m1975 6 c0 -5 -7
-10 -15 -10 -8 0 -15 5 -15 10 0 6 7 10 15 10 8 0 15 -4 15 -10z m1145 -1 l50
-6 -42 -1 c-24 -1 -43 -6 -43 -11 0 -5 84 -10 197 -10 108 0 198 -3 201 -6 3
-3 -40 -5 -96 -5 -56 0 -102 -3 -102 -8 0 -4 19 -20 42 -35 l42 -27 -94 -1
c-52 -1 -162 -3 -245 -4 l-150 -2 -75 36 -74 36 52 3 c29 2 52 7 52 12 0 6 -8
9 -17 8 -49 -4 -101 4 -119 17 -17 13 1 15 176 13 107 -1 218 -5 245 -9z
m-1086 -28 c8 -5 11 -16 8 -24 -3 -9 0 -21 8 -27 17 -14 15 -68 -2 -74 -8 -3
-14 9 -18 32 -4 20 -10 47 -16 60 -16 41 -10 52 20 33z m-861 -26 c-3 -3 -9 2
-12 12 -6 14 -5 15 5 6 7 -7 10 -15 7 -18z m917 5 c3 -6 -1 -7 -9 -4 -18 7
-21 14 -7 14 6 0 13 -4 16 -10z m-128 -16 c-3 -3 -12 -4 -19 -1 -8 3 -5 6 6 6
11 1 17 -2 13 -5z m33 -24 c0 -5 -4 -10 -10 -10 -5 0 -10 5 -10 10 0 6 5 10
10 10 6 0 10 -4 10 -10z m2000 -5 c0 -13 31 -15 223 -15 228 0 301 -6 291 -22
-3 -5 -50 -7 -107 -4 -56 3 -169 6 -250 7 -141 2 -149 1 -163 -19 -16 -23 -34
-29 -34 -11 0 5 4 8 9 5 14 -9 30 38 19 57 -6 11 -5 17 2 17 5 0 10 -7 10 -15z
m-1895 -15 c3 -5 -1 -10 -9 -10 -9 0 -16 5 -16 10 0 6 4 10 9 10 6 0 13 -4 16
-10z m-85 -49 c0 -22 -4 -43 -10 -46 -5 -3 -10 -1 -10 5 0 20 -25 37 -48 34
-12 -2 -22 0 -22 5 0 5 14 11 30 13 17 3 30 1 30 -4 0 -4 4 -8 9 -8 6 0 8 9 6
20 -2 11 0 20 6 20 5 0 9 -18 9 -39z m1402 11 c9 -9 -40 -12 -222 -12 -129 0
-253 4 -275 8 -39 7 -38 7 25 13 120 10 459 4 472 -9z m-1297 -10 c-3 -3 -11
0 -18 7 -9 10 -8 11 6 5 10 -3 15 -9 12 -12z m-165 -32 c0 -5 -8 -10 -17 -10
-15 0 -16 2 -3 10 19 12 20 12 20 0z m1548 -20 c13 -11 31 -20 38 -20 8 0 14
-4 14 -10 0 -6 -57 -10 -150 -10 -82 0 -150 4 -150 8 0 5 -37 6 -81 4 -55 -3
-80 -1 -75 6 3 6 1 14 -5 18 -7 4 -9 3 -6 -3 15 -23 -31 -18 -83 10 l-55 29
264 -6 c241 -6 266 -8 289 -26z m-3849 4 c18 -17 -53 -24 -268 -24 -196 0
-243 3 -233 13 20 19 483 30 501 11z m-64 -50 c-11 -8 -25 -12 -31 -10 -7 3
-20 -2 -31 -9 -10 -8 -35 -15 -55 -15 -37 0 -108 -27 -108 -41 0 -4 10 -9 23
-11 12 -2 21 -7 19 -13 -2 -11 -13 -11 -622 -5 -217 2 -380 5 -362 7 19 3 32
10 32 19 0 8 9 13 23 11 13 -1 21 3 20 11 -2 6 0 12 5 12 4 1 39 3 77 5 39 2
95 7 125 10 30 3 109 7 175 10 66 3 179 9 250 14 116 6 315 6 370 -1 11 -2 19
2 18 7 -1 6 19 11 45 12 42 1 45 0 27 -13z m5007 -18 c10 -7 21 -27 24 -44 13
-66 -72 -97 -124 -45 l-27 28 -310 0 c-399 2 -435 3 -435 15 0 16 33 26 38 12
2 -7 8 -12 13 -12 6 0 7 5 4 10 -3 6 3 10 14 10 11 0 23 -4 26 -10 3 -5 14
-10 23 -10 15 0 15 2 2 10 -19 12 -24 12 334 0 l290 -11 24 31 c26 33 72 40
104 16z m-6115 -32 c-7 -7 -199 -6 -206 1 -2 3 44 5 104 5 60 0 106 -3 102 -6z
m5031 -1 c-32 -2 -84 -2 -115 0 -32 2 -6 3 57 3 63 0 89 -1 58 -3z m89 1 c-3
-3 -12 -4 -19 -1 -8 3 -5 6 6 6 11 1 17 -2 13 -5z m110 -9 c-2 -5 -16 -12 -32
-13 -24 -3 -27 -1 -17 10 13 16 54 19 49 3z m-5730 -1 c-3 -3 -12 -4 -19 -1
-8 3 -5 6 6 6 11 1 17 -2 13 -5z m70 0 c-3 -3 -12 -4 -19 -1 -8 3 -5 6 6 6 11
1 17 -2 13 -5z m368 -14 c3 -5 1 -10 -4 -10 -6 0 -11 5 -11 10 0 6 2 10 4 10
3 0 8 -4 11 -10z m5208 3 c-13 -2 -35 -2 -50 0 -16 2 -5 4 22 4 28 0 40 -2 28
-4z m-5290 -20 c-18 -2 -48 -2 -65 0 -18 2 -4 4 32 4 36 0 50 -2 33 -4z m3552
-23 c3 -6 -1 -7 -9 -4 -18 7 -21 14 -7 14 6 0 13 -4 16 -10z m-3702 -7 c-13
-2 -35 -2 -50 0 -16 2 -5 4 22 4 28 0 40 -2 28 -4z m130 0 c-13 -2 -35 -2 -50
0 -16 2 -5 4 22 4 28 0 40 -2 28 -4z m858 -14 c5 -7 9 -18 9 -24 0 -5 -5 -3
-10 5 -8 12 -10 12 -10 1 0 -12 -49 -13 -322 -7 -272 6 -411 15 -388 26 15 7
266 15 473 14 197 0 240 -3 248 -15z m-804 -5 c-3 -3 -12 -4 -19 -1 -8 3 -5 6
6 6 11 1 17 -2 13 -5z m863 2 c0 -2 -7 -6 -15 -10 -8 -3 -15 -1 -15 4 0 6 7
10 15 10 8 0 15 -2 15 -4z m-100 -76 c0 -5 -7 -7 -15 -4 -8 4 -15 8 -15 10 0
2 7 4 15 4 8 0 15 -4 15 -10z m4916 -64 l-58 -46 -464 -1 c-255 -1 -471 -1
-479 -1 -8 0 -43 1 -77 2 -48 3 -54 4 -25 7 29 3 37 8 33 19 -3 8 -1 14 5 14
5 0 12 -7 15 -15 8 -19 34 -20 34 -2 0 11 35 15 152 20 83 4 187 7 230 7 50 0
77 4 73 10 -3 6 -18 11 -33 12 -92 5 106 14 358 16 l295 3 -59 -45z m-4666
-32 c0 -18 40 -34 84 -34 18 0 45 -9 59 -20 14 -11 35 -20 46 -20 12 0 21 -4
21 -10 0 -5 -20 -10 -44 -10 -54 0 -106 -10 -106 -20 0 -5 28 -9 63 -9 71 0
180 -10 186 -17 2 -2 -66 -4 -152 -4 -90 0 -157 4 -157 9 0 5 8 11 18 13 12 3
9 6 -10 10 -15 3 -25 1 -22 -3 3 -5 -1 -10 -8 -11 -7 0 -20 -2 -28 -3 -8 -1
-23 2 -32 7 -11 5 -18 5 -18 -2 0 -15 -24 -8 -32 10 -5 12 -7 12 -7 -2 -1 -16
-13 -18 -143 -13 -79 3 -159 7 -178 10 -19 2 -87 7 -150 10 -63 4 -117 8 -119
11 -4 4 98 6 259 5 41 0 93 3 115 7 l40 8 -35 22 -35 22 48 1 c83 2 90 4 95
17 3 9 -14 12 -60 13 -34 1 -74 5 -88 9 -14 5 64 8 183 9 177 0 207 -2 207
-15z m2470 0 c0 -3 -6 -12 -14 -19 -17 -17 -30 -7 -15 12 12 13 29 18 29 7z
m1670 -66 c0 -13 -35 -17 -148 -19 -62 -2 -115 -6 -118 -11 -3 -4 43 -8 102
-8 84 0 105 -3 96 -12 -9 -9 -98 -12 -343 -11 -182 1 -333 4 -337 7 -3 3 60 7
139 8 79 1 161 2 181 3 20 0 40 3 44 8 4 4 -7 7 -24 7 -17 0 -34 5 -37 10 -4
6 -11 8 -16 5 -5 -4 -9 -2 -9 4 0 11 95 16 322 16 82 0 148 -3 148 -7z m-783
-54 c-3 -3 -12 -4 -19 -1 -8 3 -5 6 6 6 11 1 17 -2 13 -5z m635 -44 c-17 -18
-36 -20 -292 -25 -252 -5 -273 -4 -246 10 23 12 82 17 280 22 138 3 253 7 255
9 16 14 18 0 3 -16z m816 13 c-21 -2 -57 -2 -80 0 -24 2 -7 4 37 4 44 0 63 -2
43 -4z m-2518 -13 c-8 -5 -19 -10 -25 -10 -5 0 -3 5 5 10 8 5 20 10 25 10 6 0
3 -5 -5 -10z m2263 3 c-13 -2 -33 -2 -45 0 -13 2 -3 4 22 4 25 0 35 -2 23 -4z
m-4123 -46 c19 -12 40 -22 46 -23 7 -1 20 -7 31 -13 14 -9 -47 -11 -254 -8
-195 2 -276 6 -285 15 -9 9 18 12 126 12 91 0 135 3 131 10 -4 6 -12 10 -18 9
-7 -1 -68 0 -137 1 -82 1 -116 5 -100 10 14 5 115 8 225 8 186 0 202 -1 235
-21z m-1005 -17 c4 -6 -12 -10 -40 -10 -25 0 -44 3 -42 8 8 11 75 13 82 2z
m162 -5 c1 -6 -10 -10 -27 -10 -16 -1 -30 2 -30 5 0 3 -19 4 -42 2 -24 -2 -38
0 -31 5 16 12 126 10 130 -2z m59 3 c5 -7 1 -9 -9 -5 -10 3 -17 2 -17 -4 0 -6
-4 -7 -10 -4 -16 10 -12 21 10 22 11 1 23 -3 26 -9z m4256 0 c-9 -9 -114 -12
-352 -9 -115 1 -160 4 -150 11 18 12 514 10 502 -2z m-127 -39 l60 -2 -70 -7
c-38 -5 -162 -11 -275 -15 -165 -6 -203 -5 -193 5 19 20 125 29 278 24 77 -2
167 -5 200 -5z m-3700 -19 c-3 -5 -1 -10 4 -10 6 0 11 5 11 10 0 14 477 14
485 -1 4 -6 17 -15 29 -20 13 -6 -81 -7 -256 -5 -269 4 -316 9 -287 27 18 11
22 11 14 -1z m4548 -27 c-84 -2 -222 -2 -305 0 -84 1 -16 3 152 3 168 0 236
-2 153 -3z m-1043 -13 c43 -6 47 -8 20 -9 -19 -1 -42 -6 -50 -11 -10 -7 8 -10
59 -10 102 0 86 -7 -29 -13 -52 -2 -95 -8 -95 -13 0 -5 26 -8 58 -6 39 2 56
-1 52 -8 -3 -5 -1 -10 4 -10 6 0 11 5 11 10 0 6 10 10 23 10 22 -1 22 -1 -3
-14 -31 -17 -310 -29 -465 -19 -108 6 -123 21 -22 22 36 1 47 5 47 17 0 12 -7
15 -30 12 -16 -3 -30 -1 -30 3 0 7 66 34 105 42 34 8 287 5 345 -3z m-2893
-22 c10 -9 38 -25 63 -36 25 -11 102 -45 171 -76 69 -31 129 -56 133 -56 3 0
25 -9 49 -19 337 -152 759 -214 1107 -162 168 25 454 91 443 102 -5 5 -28 4
-52 -2 -24 -5 -49 -8 -55 -6 -6 2 5 7 24 11 19 4 94 25 167 47 115 34 145 39
240 40 59 1 140 5 178 9 60 6 48 7 -80 9 l-150 3 60 19 c64 20 193 25 339 12
93 -7 82 -23 -17 -23 -51 0 -68 -3 -64 -12 2 -8 21 -13 50 -12 51 1 60 -7 25
-23 -21 -9 -21 -10 -3 -17 11 -4 16 -4 12 0 -12 12 27 33 63 33 l35 0 -60 -34
c-33 -19 -70 -35 -82 -35 -12 0 -24 -4 -27 -9 -5 -8 -26 -14 -96 -26 -35 -6
-160 -49 -160 -55 0 -3 21 -4 48 -3 26 2 43 1 37 -1 -20 -8 -211 -66 -250 -75
-22 -6 -85 -22 -140 -36 -55 -14 -136 -32 -180 -40 -44 -8 -101 -19 -126 -24
-41 -9 -214 -17 -514 -26 -198 -5 -948 -6 -953 0 -3 3 2 5 11 5 10 0 17 5 17
10 0 6 9 10 21 10 11 0 17 5 14 10 -3 6 -2 10 3 10 6 0 12 -7 16 -15 3 -8 11
-15 18 -14 10 0 10 2 1 6 -21 8 -15 19 10 19 12 0 25 -5 29 -10 5 -8 8 -8 8 0
0 6 34 11 85 12 71 2 85 0 85 -13 0 -8 10 -16 23 -17 61 -5 407 -2 407 3 0 4
-44 12 -97 18 -107 13 -336 57 -368 71 -25 11 -114 19 -227 21 -49 1 -88 5
-88 8 0 4 -13 6 -30 5 -16 -1 -27 2 -24 7 3 5 39 9 80 9 77 0 92 13 30 24 -19
4 -36 11 -38 17 -4 12 -122 18 -320 19 -89 0 -108 3 -108 15 0 8 5 15 10 15 6
0 10 -6 10 -12 0 -8 3 -9 8 -3 4 6 96 11 231 12 123 2 226 4 228 6 2 3 -56 8
-129 13 l-133 8 85 7 c47 4 125 7 174 8 168 2 80 10 -120 12 -195 1 -289 11
-309 33 -11 12 -166 89 -201 100 -11 3 -48 21 -83 40 l-62 33 53 6 c29 4 80 7
112 7 71 0 69 6 -5 19 -42 8 -12 9 133 8 154 -2 190 -6 205 -19z m3509 -91 c3
-3 -24 -7 -60 -9 -36 -1 -66 0 -66 3 0 4 -18 5 -41 3 -27 -3 -38 -1 -34 7 7
11 190 8 201 -4z m44 1 c0 -4 -7 -8 -15 -8 -8 0 -15 4 -15 8 0 5 7 9 15 9 8 0
15 -4 15 -9z m-263 -4 c-3 -3 -12 -4 -19 -1 -8 3 -5 6 6 6 11 1 17 -2 13 -5z
m300 0 c-3 -3 -12 -4 -19 -1 -8 3 -5 6 6 6 11 1 17 -2 13 -5z m-820 -20 c-3
-3 -12 -4 -19 -1 -8 3 -5 6 6 6 11 1 17 -2 13 -5z m-3570 -89 c0 -8 -2 -15 -4
-15 -3 0 -11 7 -19 15 -14 13 -13 15 4 15 10 0 19 -7 19 -15z m20 -7 c-3 -8
-6 -5 -6 6 -1 11 2 17 5 13 3 -3 4 -12 1 -19z m533 -89 c0 -9 -57 -6 -66 4 -5
4 8 7 29 5 20 -1 37 -5 37 -9z m3443 -106 c-23 -2 -64 -2 -90 0 -26 2 -7 3 42
3 50 0 71 -1 48 -3z m-2993 -113 c0 -5 -19 -9 -42 -9 l-43 2 40 7 c22 4 41 8
43 9 1 0 2 -3 2 -9z m1275 -62 c6 -6 3 -7 -9 -2 -14 5 -17 4 -12 -5 5 -8 -6
-11 -41 -11 -26 0 -88 0 -138 -1 -218 -3 -245 -1 -245 21 0 20 3 21 218 14
119 -3 222 -10 227 -16z m-435 -48 c0 -5 -4 -10 -10 -10 -5 0 -10 5 -10 10 0
6 5 10 10 10 6 0 10 -4 10 -10z m70 -6 c0 -2 -11 -4 -25 -4 -14 0 -25 4 -25 9
0 4 11 6 25 3 14 -2 25 -6 25 -8z m409 0 c3 -2 -1 -10 -7 -16 -9 -9 -12 -9
-12 1 0 7 -5 9 -10 6 -24 -15 -375 -1 -366 14 4 7 388 2 395 -5z m107 -11 c-8
-9 -96 -11 -96 -2 0 5 23 8 50 8 28 -1 49 -4 46 -6z m74 -3 c11 -7 6 -9 -18
-7 -17 2 -35 7 -39 10 -10 11 40 8 57 -3z m35 0 c3 -5 1 -10 -4 -10 -6 0 -11
5 -11 10 0 6 2 10 4 10 3 0 8 -4 11 -10z m-2949 -646 c53 -39 64 -63 66 -149
l3 -80 -72 -3 c-60 -2 -73 0 -73 13 0 9 10 16 28 16 26 2 26 2 2 6 -16 3 -30
15 -40 36 -8 18 -31 40 -50 50 -32 17 -56 18 -278 12 -230 -6 -243 -5 -240 12
2 14 -5 19 -32 23 -43 6 -45 25 -7 54 37 27 127 34 429 32 222 -1 238 -2 264
-22z m954 16 c22 -6 50 -20 60 -30 22 -22 36 -67 25 -78 -9 -10 -176 -19 -182
-9 -2 4 -105 7 -229 7 -123 0 -224 4 -224 8 0 4 -27 21 -60 37 -44 22 -60 35
-60 51 0 21 2 21 314 23 206 2 328 -2 356 -9z m972 0 c43 -12 90 -64 86 -94
-3 -19 -11 -22 -83 -27 l-80 -5 83 -2 82 -2 1 -75 c2 -149 3 -142 -26 -170
l-24 -25 -382 0 c-210 0 -380 2 -377 6 3 3 19 6 34 7 22 2 30 8 32 25 2 12 9
22 15 22 9 0 9 2 0 8 -8 5 -14 54 -18 142 -3 74 -8 147 -10 162 l-4 28 172 3
c411 7 464 6 499 -3z m964 -9 c1 -6 2 -15 3 -21 0 -5 7 -7 15 -4 9 4 16 -6 20
-31 7 -37 6 -188 -2 -262 l-4 -43 -154 0 c-119 0 -155 -3 -161 -14 -6 -10 -45
-15 -143 -21 -74 -4 -137 -8 -139 -10 -2 -2 -6 -63 -9 -134 -4 -117 -7 -131
-23 -131 -9 0 -24 -3 -32 -6 -10 -3 -17 1 -19 13 -2 10 -8 -12 -12 -49 -15
-136 -34 -62 -45 174 l-6 137 80 9 80 9 -115 3 c-107 2 -112 3 -76 14 l40 12
-2 140 c-2 76 -5 158 -8 182 l-6 42 56 0 c56 0 56 0 56 -30 0 -23 4 -30 20
-30 19 0 20 -7 20 -117 l0 -116 158 6 c86 4 190 7 231 7 l74 0 -6 144 -6 145
57 -3 c33 -2 58 -8 58 -15z m934 0 c0 -11 5 -23 10 -26 6 -3 10 -22 10 -41 l0
-34 -57 -1 c-32 0 -152 -2 -268 -4 -222 -4 -218 -5 -318 46 -22 10 -45 19 -52
19 -12 0 -27 45 -18 53 2 2 159 5 348 6 339 2 345 2 345 -18z m340 -11 c0 -43
11 -69 26 -63 10 4 14 -4 15 -26 1 -45 1 -91 -1 -93 0 -2 -3 -36 -6 -75 -3
-50 -2 -73 6 -73 6 0 9 -4 6 -8 -3 -5 8 -6 25 -4 21 3 29 0 29 -11 0 -12 -20
-16 -91 -22 -49 -4 -93 -4 -97 0 -4 3 -8 96 -10 205 l-2 199 50 -2 c46 -2 50
-4 50 -27z m646 10 c2 -30 4 -32 19 -20 13 11 15 7 15 -24 0 -21 -5 -36 -12
-36 -22 0 2 -13 49 -27 46 -12 46 -13 11 -10 -34 3 -38 0 -38 -20 0 -15 6 -23
18 -24 16 -1 16 -2 0 -6 -13 -3 -18 -15 -18 -39 l0 -35 -72 3 -73 3 -3 128 -3
128 53 -3 c39 -2 53 -7 54 -18z m882 13 c100 -3 181 -8 178 -10 -2 -2 -41 -8
-87 -12 l-84 -8 68 -2 c52 -1 67 -4 67 -16 0 -12 -13 -15 -59 -15 -36 0 -65
-5 -73 -13 -18 -18 -4 -17 -220 -17 -185 0 -194 -1 -221 -23 -25 -19 -29 -30
-30 -77 l-2 -55 -72 0 -73 0 0 73 c0 62 3 72 18 73 10 0 12 3 5 6 -7 2 -13 13
-13 24 0 18 9 19 143 21 78 1 120 3 92 5 -188 11 -219 15 -199 26 47 27 205
32 562 20z m-4650 -230 c-3 -73 -9 -106 -23 -130 -24 -40 -32 -43 -127 -50
-43 -3 -78 -9 -78 -12 0 -3 20 -27 43 -52 41 -43 165 -199 182 -227 6 -11 3
-12 -13 -3 -12 6 -24 16 -27 21 -10 16 -28 12 -21 -5 6 -18 -5 -20 -22 -3 -23
23 -24 -1 -1 -34 l24 -33 -40 33 c-22 17 -96 91 -165 163 -122 129 -176 171
-189 151 -3 -6 -32 14 -64 45 -31 30 -57 56 -57 57 0 1 93 0 206 -2 134 -2
204 0 200 6 -3 6 -1 12 5 14 13 4 16 129 4 148 -4 6 24 10 81 10 l86 0 -4 -97z
m-1638 43 c0 -48 -9 -49 -235 -30 -86 7 -95 9 -60 15 22 4 63 8 92 8 28 1 53
6 55 12 2 6 20 11 41 12 20 0 37 5 37 9 0 4 16 8 35 8 33 0 35 -2 35 -34z
m1031 -13 c2 -21 2 -65 -1 -98 -3 -33 -1 -89 3 -124 5 -35 5 -66 2 -69 -3 -4
-37 -8 -76 -10 l-69 -4 0 31 c0 28 3 31 33 32 l32 1 -30 7 -29 6 -2 133 -3
132 69 0 68 0 3 -37z m2850 -18 c1 -30 2 -61 3 -67 1 -10 52 -12 231 -10 142
2 240 0 255 -6 l25 -11 -30 -2 c-16 -1 -40 -1 -52 0 -13 1 -23 -3 -23 -9 0 -6
-13 -16 -30 -21 -16 -6 -30 -15 -30 -21 0 -6 -6 -8 -14 -5 -7 3 -18 1 -22 -3
-5 -5 -108 -12 -229 -16 l-220 -7 -1 117 -1 116 68 0 69 0 1 -55z m-3889 -41
c2 -9 2 -52 0 -95 l-4 -79 -78 0 c-59 0 -78 3 -75 13 2 6 6 48 9 92 3 44 6 81
6 83 0 1 31 2 69 2 56 0 70 -3 73 -16z m668 -143 l0 -138 -32 2 c-18 1 -52 2
-75 3 l-43 2 7 48 c3 26 11 50 17 54 8 5 7 8 -1 8 -9 0 -13 23 -13 80 l0 80
70 0 70 0 0 -139z m4788 54 c2 -44 0 -113 -3 -152 l-7 -73 -46 0 c-45 0 -46 0
-24 16 29 20 22 30 -25 37 l-38 7 2 52 c1 29 2 86 3 126 l0 73 68 -3 67 -3 3
-80z m596 70 c116 -5 146 -4 140 6 -5 9 14 11 86 6 51 -4 130 -8 174 -8 l81
-2 -72 -7 c-63 -5 -96 -14 -82 -22 2 -2 17 -10 34 -18 16 -9 31 -23 33 -32 4
-19 -72 -25 -423 -34 -197 -5 -235 -4 -267 10 -39 17 -68 58 -68 97 0 21 2 21
108 16 59 -3 174 -9 256 -12z m-2331 -112 c-7 -2 -19 -2 -25 0 -7 3 -2 5 12 5
14 0 19 -2 13 -5z m2785 -8 c11 -9 -165 -15 -236 -8 l-87 8 120 5 c104 5 193
3 203 -5z m-2980 -82 l-3 -88 -67 0 c-38 0 -68 3 -68 8 0 4 0 43 0 87 l0 80
70 0 71 0 -3 -87z m372 46 c0 -30 -1 -31 -40 -24 -25 4 -40 3 -40 -3 0 -6 -3
-17 -6 -26 -5 -13 2 -16 40 -16 44 0 46 -1 46 -30 l0 -30 -97 1 c-54 1 -90 3
-80 6 11 3 17 14 17 34 0 26 4 29 33 31 l32 1 -33 4 c-29 4 -33 7 -28 26 3 12
6 30 6 40 0 15 10 17 75 17 l75 0 0 -31z m910 12 c0 -15 -10 -19 -54 -25 -60
-7 -86 -1 -86 20 0 9 19 14 63 17 34 2 65 4 70 5 4 1 7 -6 7 -17z m1295 9 c3
-5 -1 -10 -10 -10 -9 0 -13 5 -10 10 3 6 8 10 10 10 2 0 7 -4 10 -10z m-6567
-17 c-10 -2 -26 -2 -35 0 -10 3 -2 5 17 5 19 0 27 -2 18 -5z m2467 -118 c-4
-66 -8 -125 -10 -131 -2 -6 -17 -14 -34 -16 -29 -4 -31 -2 -32 26 -1 30 -1 30
-9 6 -4 -14 -9 -47 -9 -75 -1 -46 -14 -86 -24 -75 -3 3 -8 92 -12 197 l-7 193
71 -2 72 -2 -6 -121z m162 119 c-3 -3 -12 -4 -19 -1 -8 3 -5 6 6 6 11 1 17 -2
13 -5z m4293 -39 l0 -45 -75 0 -75 0 0 45 0 45 75 0 75 0 0 -45z m-6460 -20
l0 -44 -69 0 -69 1 -5 35 c-4 20 -4 40 -1 45 3 4 36 8 75 8 l69 0 0 -45z
m4747 11 c4 -3 16 -6 28 -6 16 0 25 -9 31 -32 14 -49 42 -58 187 -58 110 0
127 -2 127 -16 0 -13 3 -14 13 -5 8 6 16 8 20 5 3 -3 62 -6 131 -5 116 0 126
-1 126 -18 0 -11 -10 -22 -22 -25 -22 -7 -22 -8 -4 -15 40 -16 -99 -30 -355
-36 -183 -5 -259 -4 -263 4 -5 8 13 11 58 11 36 0 66 4 66 9 0 12 -144 2 -148
-10 -5 -12 -51 20 -63 44 -6 11 -13 52 -16 93 l-6 73 42 -4 c23 -1 45 -5 48
-9z m-1977 -26 c0 -5 -7 -10 -15 -10 -8 0 -15 5 -15 10 0 6 7 10 15 10 8 0 15
-4 15 -10z m-1730 -40 l0 -30 -69 0 c-65 0 -69 1 -73 25 -3 13 -3 27 0 30 3 3
36 5 74 5 l68 0 0 -30z m5476 -6 c-17 -16 -241 -21 -251 -5 -10 17 109 29 212
23 45 -3 51 -6 39 -18z m-5846 -14 c0 -6 -37 -10 -90 -10 -53 0 -90 4 -90 10
0 6 37 10 90 10 53 0 90 -4 90 -10z m3753 -16 c35 -6 37 -8 37 -45 l0 -39 -56
0 c-43 0 -55 -3 -51 -13 4 -11 -52 -14 -301 -15 l-307 -2 -3 54 -2 55 32 4
c55 7 610 7 651 1z m2017 -9 c0 -26 -29 -74 -53 -87 -16 -10 -117 -14 -407
-16 -211 -2 -382 -1 -380 1 3 3 62 7 132 9 71 1 128 6 128 10 0 3 3 13 6 22 5
13 -2 16 -35 16 -23 0 -41 4 -41 9 0 5 -19 13 -42 17 l-43 8 60 8 c100 12 225
8 225 -8 0 -8 9 -14 20 -14 11 0 20 7 20 15 0 13 18 15 111 14 61 0 113 2 116
5 4 3 46 6 95 6 73 0 88 -3 88 -15z m-5807 -1 c-9 -4 -10 -10 -1 -24 10 -15 9
-23 -5 -38 -32 -35 -86 -42 -309 -42 l-215 0 2 25 c2 16 -2 25 -11 25 -7 0
-11 -6 -8 -14 7 -18 -36 -25 -111 -16 l-60 7 55 3 c30 1 63 2 73 1 9 -1 17 4
17 13 0 11 -13 16 -47 19 l-48 3 53 2 c62 2 71 22 10 22 -24 0 -49 4 -57 9 -7
5 135 9 330 9 189 0 339 -2 332 -4z m407 -18 c0 -13 -3 -38 -6 -55 -6 -30 -8
-31 -64 -31 -63 0 -70 7 -70 78 l0 32 70 0 c67 0 70 -1 70 -24z m2402 2 c-2
-15 5 -18 38 -18 l41 0 -3 -62 c-3 -67 -20 -81 -28 -26 -3 18 -8 28 -12 23 -3
-6 -25 -9 -47 -7 l-41 4 0 55 c0 53 0 54 28 51 19 -2 26 -8 24 -20z m2295 -14
c-3 -3 -12 -4 -19 -1 -8 3 -5 6 6 6 11 1 17 -2 13 -5z m-3837 -300 c0 -27 -4
-43 -10 -39 -5 3 -10 24 -10 46 0 21 5 39 10 39 6 0 10 -21 10 -46z m46 -10
c-5 -66 -16 -66 -16 0 0 35 4 55 10 51 5 -3 8 -26 6 -51z"/>
<path d="M8548 6913 c6 -2 18 -2 25 0 6 3 1 5 -13 5 -14 0 -19 -2 -12 -5z"/>
<path d="M6618 6793 c7 -3 16 -2 19 1 4 3 -2 6 -13 5 -11 0 -14 -3 -6 -6z"/>
<path d="M7090 6612 c0 -4 5 -13 12 -20 9 -9 9 -12 0 -12 -7 0 -12 -4 -12 -10
0 -5 11 -9 24 -8 23 2 24 3 10 30 -14 26 -34 38 -34 20z"/>
<path d="M7145 6601 c-3 -5 0 -13 6 -17 7 -4 9 -3 5 4 -3 5 0 13 6 15 9 4 10
6 1 6 -6 1 -14 -3 -18 -8z"/>
<path d="M8275 6370 c-3 -5 -1 -10 4 -10 6 0 11 5 11 10 0 6 -2 10 -4 10 -3 0
-8 -4 -11 -10z"/>
<path d="M8355 6350 c-3 -5 -1 -10 4 -10 6 0 11 5 11 10 0 6 -2 10 -4 10 -3 0
-8 -4 -11 -10z"/>
<path d="M8155 6300 c3 -5 8 -10 11 -10 2 0 4 5 4 10 0 6 -5 10 -11 10 -5 0
-7 -4 -4 -10z"/>
<path d="M8255 5820 c3 -5 10 -10 16 -10 5 0 9 5 9 10 0 6 -7 10 -16 10 -8 0
-12 -4 -9 -10z"/>
<path d="M6030 6670 c0 -5 7 -10 15 -10 8 0 15 5 15 10 0 6 -7 10 -15 10 -8 0
-15 -4 -15 -10z"/>
<path d="M5858 6541 c12 -7 62 -4 62 5 0 2 -17 4 -37 4 -24 0 -33 -3 -25 -9z"/>
<path d="M6028 6543 c12 -2 30 -2 40 0 9 3 -1 5 -23 4 -22 0 -30 -2 -17 -4z"/>
<path d="M5853 6462 c6 -9 64 -8 74 1 3 4 -13 7 -36 7 -23 0 -40 -3 -38 -8z"/>
<path d="M9050 6549 c0 -5 5 -7 10 -4 6 3 10 8 10 11 0 2 -4 4 -10 4 -5 0 -10
-5 -10 -11z"/>
<path d="M9443 6483 c9 -2 23 -2 30 0 6 3 -1 5 -18 5 -16 0 -22 -2 -12 -5z"/>
<path d="M10713 6270 c-26 -11 -27 -14 -13 -41 19 -35 80 -18 80 22 0 26 -28
34 -67 19z"/>
<path d="M9690 6060 c0 -5 5 -10 10 -10 6 0 10 5 10 10 0 6 -4 10 -10 10 -5 0
-10 -4 -10 -10z"/>
<path d="M9230 6019 c0 -5 5 -7 10 -4 6 3 10 8 10 11 0 2 -4 4 -10 4 -5 0 -10
-5 -10 -11z"/>
<path d="M5830 5799 c0 -5 37 -9 82 -9 45 0 79 3 75 6 -10 10 -157 12 -157 3z"/>
<path d="M6650 5440 c0 -5 4 -10 9 -10 6 0 13 5 16 10 3 6 -1 10 -9 10 -9 0
-16 -4 -16 -10z"/>
<path d="M7258 5153 c7 -3 16 -2 19 1 4 3 -2 6 -13 5 -11 0 -14 -3 -6 -6z"/>
<path d="M4520 4300 c0 -5 5 -10 10 -10 6 0 10 5 10 10 0 6 -4 10 -10 10 -5 0
-10 -4 -10 -10z"/>
<path d="M6467 4183 c1 -49 2 -98 3 -111 0 -20 4 -23 28 -18 15 3 103 8 196
11 94 4 177 12 187 18 36 22 41 130 9 165 -20 21 -28 22 -223 22 l-202 0 2
-87z"/>
<path d="M7458 4003 c23 -2 61 -2 85 0 23 2 4 4 -43 4 -47 0 -66 -2 -42 -4z"/>
<path d="M7608 4003 c6 -2 18 -2 25 0 6 3 1 5 -13 5 -14 0 -19 -2 -12 -5z"/>
<path d="M10518 4323 c6 -2 18 -2 25 0 6 3 1 5 -13 5 -14 0 -19 -2 -12 -5z"/>
<path d="M9340 3730 c0 -5 7 -10 16 -10 8 0 12 5 9 10 -3 6 -10 10 -16 10 -5
0 -9 -4 -9 -10z"/>
<path d="M10330 3730 c0 -5 7 -10 15 -10 8 0 15 5 15 10 0 6 -7 10 -15 10 -8
0 -15 -4 -15 -10z"/>
</g>
</svg>
